<?xml version="1.0" encoding="UTF-8"?><svg id="Layer_1" xmlns="http://www.w3.org/2000/svg" viewBox="0 0 1994.17 791.02"><defs><style>.cls-1{fill-rule:evenodd;}.cls-1,.cls-2{fill:#231f20;}</style></defs><g><g><path class="cls-1" d="M496.27,62.67h-35.39v-5.72h101.89c28.84,0,51.78,5.5,68.82,16.48,17.04,10.99,25.56,28.79,25.56,53.39s-9,40.91-26.99,52.49c-18,11.6-39.27,17.38-63.81,17.38-14.3,0-25.5-2.03-33.61-6.07v112.59h36.47v5.72h-108.32v-5.72h35.39V62.67Zm36.46,120.79c3.1,1.91,7.1,3.65,11.98,5.2,4.89,1.55,10.08,2.32,15.56,2.32,15.01,0,28.48-4.72,40.39-14.15,11.92-9.44,17.88-25.03,17.88-46.77,0-23.18-5.31-40.2-15.91-51.07-10.61-10.87-26.63-16.31-48.08-16.31h-21.81v120.79Z"/><path class="cls-1" d="M802.27,51.6c30.26,0,56.65,12.85,79.18,38.55,22.52,25.7,33.78,56.63,33.78,92.81s-11.14,67.4-33.42,92.98c-22.28,25.58-48.8,38.37-79.53,38.37s-56.67-12.85-79.19-38.55c-22.52-25.7-33.79-56.63-33.79-92.8s11.14-67.41,33.43-92.99c22.29-25.58,48.8-38.37,79.55-38.37Zm0,256.98c19.3,0,34.31-6.72,45.04-20.17,10.72-13.44,17.93-29.38,21.62-47.83,3.69-18.44,5.54-37.65,5.54-57.63s-1.73-40.1-5.18-58.18c-3.46-18.08-10.55-33.85-21.27-47.3-10.73-13.44-25.98-20.17-45.75-20.17s-34.32,6.72-45.05,20.17c-10.73,13.45-17.94,29.39-21.63,47.83-3.69,18.44-5.54,37.66-5.54,57.65s1.73,40.09,5.19,58.17c3.45,18.09,10.54,33.85,21.27,47.29,10.72,13.45,25.98,20.17,45.76,20.17Z"/><path class="cls-1" d="M976.42,62.67h-35.75v-5.72h109.75c25.5,0,46.18,4.42,62.02,13.27,15.85,8.84,23.78,25.57,23.78,50.18,0,19.35-7.86,33.34-23.59,41.94-15.74,8.6-33.36,14.1-52.91,16.49,22.64,2.38,39.03,7.44,49.15,15.19,10.13,7.74,16.51,22.82,19.13,45.22l5.01,43.6c1.19,9.05,3.52,15.06,6.97,18.05,3.46,2.98,7.33,4.47,11.62,4.47,3.81,0,8.69-1.19,14.65-3.57l2.15,4.64c-3.82,1.43-8.05,2.57-12.7,3.4-4.65,.84-10.19,1.25-16.62,1.25-19.78,0-32.47-4.58-38.07-13.76-5.6-9.18-9.95-26.03-13.05-50.57l-2.5-21.45c-1.43-13.82-5.42-24.43-11.97-31.81-6.55-7.39-19.01-11.09-37.36-11.09h-23.24v120.81h36.46v5.72h-108.68v-5.72h35.75V62.67Zm36.46,114.02h17.88c22.15,0,38.84-4.37,50.04-13.08,11.2-8.73,16.8-23.13,16.8-43.21,0-17.21-4.28-31.14-12.87-41.78-8.57-10.63-24.42-15.95-47.54-15.95h-24.31v114.02Z"/><path class="cls-1" d="M1271.78,62.67h-7.5c-32.41,0-53.51,4.12-63.28,12.33-9.77,8.22-14.65,26.87-14.65,55.94h-5.72V56.96h218.78v73.99h-5.72c0-28.84-4.88-47.42-14.65-55.76-9.77-8.34-30.75-12.52-62.92-12.52h-7.86v240.55h36.82v5.72h-110.11v-5.72h36.82V62.67Z"/><path class="cls-1" d="M1538.56,51.6c30.26,0,56.66,12.85,79.18,38.55,22.52,25.7,33.79,56.63,33.79,92.81s-11.14,67.4-33.42,92.98c-22.29,25.58-48.8,38.37-79.54,38.37s-56.66-12.85-79.19-38.55c-22.52-25.7-33.78-56.63-33.78-92.8s11.15-67.41,33.42-92.99c22.29-25.58,48.8-38.37,79.55-38.37Zm0,256.98c19.3,0,34.32-6.72,45.04-20.17,10.72-13.44,17.94-29.38,21.63-47.83,3.69-18.44,5.54-37.65,5.54-57.63s-1.73-40.1-5.18-58.18c-3.46-18.08-10.55-33.85-21.28-47.3-10.73-13.44-25.97-20.17-45.75-20.17s-34.32,6.72-45.04,20.17c-10.73,13.45-17.94,29.39-21.64,47.83-3.68,18.44-5.53,37.66-5.53,57.65s1.73,40.09,5.18,58.17c3.46,18.09,10.55,33.85,21.27,47.29,10.72,13.45,25.98,20.17,45.76,20.17Z"/></g><path class="cls-1" d="M0,0V365.91H425.67V0H0ZM150.89,280.03c8.69,13.8,25.29,22.91,49.51,20.71,19.13-1.74,30.06-6.19,42.22-18.56,12.16-12.37,18.24-30.21,18.24-53.53V93.03c0-10.71-1.74-18.39-5.19-23.03-3.45-4.63-6.18-6.95-15.24-6.95h-10.37v-6.43h70.78v6.43h-9.29c-6.43,0-11.14,2.43-14.13,7.3-2.97,4.89-4.47,12.45-4.47,22.68V226.51c0,27.12-7.81,48.42-23.42,63.88-15.59,15.47-39.25,23.21-70.95,23.21-29.32,0-52.74-7.92-70.25-23.74-17.52-15.82-26.27-37.53-26.27-65.14V63.04h-27.89v-6.43h112.6v6.43h-28.97V220.08c0,26.18,4.35,46.16,13.06,59.95Zm163.36,6.27c0-7.08,2.47-13.08,7.35-17.98,4.9-4.9,10.9-7.34,17.98-7.34s13.1,2.44,18,7.34c4.89,4.9,7.34,10.9,7.34,17.98s-2.45,13.08-7.34,17.98c-4.9,4.9-10.9,7.35-18,7.35s-13.08-2.45-17.98-7.35c-4.89-4.9-7.35-10.89-7.35-17.98Z"/></g><path class="cls-1" d="M569.44,661.8c0,10.28-3.17,17.96-9.52,23.06-6.18,5.09-13.74,7.64-22.68,7.64s-16.5-2.59-22.93-7.77c-6.35-5.09-9.52-12.73-9.52-22.93v-54.38h10.28v51.25c0,5.26,.29,8.93,.87,11.02,.67,2.34,1.96,4.51,3.89,6.51,4.26,4.76,10.02,7.14,17.29,7.14s13.03-2.38,17.29-7.14c1.92-2.01,3.22-4.18,3.88-6.51,.59-2.09,.88-5.77,.88-11.02v-51.25h10.27v54.38Z"/><path class="cls-1" d="M662.33,690.87h-11.9l-41.73-64.53c-.17-.34-.4-.73-.69-1.19-.29-.46-.61-1.03-.94-1.69-.58-1-1.34-2.67-2.26-5.01v71.67h-10.28v-82.7h13.41l40.97,63.02c.25,.42,.46,.76,.63,1,.17,.25,.33,.56,.5,.94,.16,.37,.35,.85,.56,1.44,.21,.59,.52,1.37,.94,2.38,.08,.17,.15,.34,.19,.5,.04,.17,.14,.42,.31,.76v-70.04h10.27v83.44Z"/><rect class="cls-2" x="689.54" y="607.42" width="10.28" height="82.7"/><path class="cls-1" d="M785.48,607.42l-32.08,84.82h-6.27l-32.58-84.82h11.03l24.43,64.53c.42,1.08,.71,2.42,.88,4.01,0-1.26,.25-2.59,.75-4.01l23.56-64.53h10.28Z"/><polygon class="cls-1" points="847.99 690.12 800.37 690.12 800.37 607.42 846.86 607.42 846.86 616.07 810.64 616.07 810.64 643.63 840.59 643.63 840.59 652.27 810.64 652.27 810.64 681.47 847.99 681.47 847.99 690.12"/><path class="cls-1" d="M899.24,653.16c5.18-1.09,9.37-3.18,12.53-6.27,4.85-4.6,7.27-10.31,7.27-17.17s-2.17-11.89-6.51-16.16c-1.26-1.16-2.51-2.14-3.77-2.94-1.25-.8-2.64-1.41-4.13-1.87-1.5-.46-3.19-.8-5.07-1.01-1.88-.21-4.08-.31-6.58-.31h-25.18v82.69h10.26v-35.46h11.04l22.8,35.46h11.78l-24.44-36.96Zm-21.17-7.14v-29.95h13.42c6.09,0,10.1,.8,12.03,2.38,3,2.42,4.51,6.23,4.51,11.4,0,10.78-5.52,16.17-16.54,16.17h-13.42Z"/><path class="cls-1" d="M987.44,612.93l-4.76,8.52c-1.84-1.08-3.47-1.98-4.89-2.69-1.42-.71-2.67-1.23-3.76-1.56-3.76-1.17-7.56-1.76-11.4-1.76-4.76,0-8.58,1.06-11.47,3.2-2.88,2.13-4.32,4.95-4.32,8.46,0,3.09,1.29,5.76,3.88,8.02,2.59,2.25,8.1,5.64,16.54,10.15,5.85,3.09,10.19,5.89,13.03,8.39,4.26,3.68,6.39,8.69,6.39,15.04,0,7.1-2.45,12.72-7.33,16.85-4.89,4.14-11.5,6.2-19.86,6.2-5.68,0-10.77-.92-15.29-2.75-2.59-1-6.14-3.05-10.65-6.14l5.26-8.14c1.92,1.34,3.7,2.46,5.32,3.38,1.63,.92,3.03,1.58,4.2,2,3.76,1.42,7.73,2.13,11.91,2.13,5.01,0,8.87-1.09,11.59-3.26,2.72-2.17,4.07-5.26,4.07-9.27,0-2.5-.42-4.47-1.25-5.89-1.51-2.75-3.84-5.01-7.02-6.76-1-.59-2.65-1.48-4.95-2.69-2.3-1.21-5.24-2.78-8.83-4.7-11.78-6.35-17.67-13.58-17.67-21.68,0-6.6,2.51-11.9,7.52-15.91,5.02-4.01,11.61-6.02,19.8-6.02,5.26,0,9.9,.67,13.91,2.01,2.75,.92,6.1,2.55,10.02,4.88Z"/><rect class="cls-2" x="1007.84" y="607.42" width="10.27" height="82.7"/><path class="cls-1" d="M1102.89,618.95c-7.86-7.68-17.8-11.52-29.81-11.52h-27.57v82.69h27.43c7.2,0,13.15-.91,17.87-2.76,4.72-1.84,8.95-4.93,12.72-9.27,7.44-8.6,11.14-18.5,11.14-29.69,0-12.03-3.92-21.84-11.78-29.45Zm.25,36.22c-.5,2.34-1.19,4.63-2.07,6.89-.87,2.25-1.93,4.41-3.19,6.45-1.25,2.05-2.63,3.87-4.13,5.45-4.76,5.01-12.2,7.52-22.31,7.52h-15.66v-65.41h15.66c9.27,0,17,3.1,23.17,9.27,6.19,6.19,9.29,13.84,9.29,22.94,0,2.25-.25,4.55-.76,6.89Z"/><path class="cls-1" d="M1163.7,605.04h-11.04l-30.82,85.07h11.04l8.51-24.44h33.46l8.53,24.44h11.02l-30.69-85.07Zm-19.05,51.24l13.53-37.84,13.4,37.84h-26.93Z"/><path class="cls-1" d="M1266.41,618.95c-7.86-7.68-17.8-11.52-29.83-11.52h-27.56v82.69h27.43c7.18,0,13.14-.91,17.86-2.76,4.72-1.84,8.96-4.93,12.73-9.27,7.42-8.6,11.15-18.5,11.15-29.69,0-12.03-3.92-21.84-11.78-29.45Zm.25,36.22c-.5,2.34-1.19,4.63-2.07,6.89-.88,2.25-1.95,4.41-3.19,6.45-1.26,2.05-2.63,3.87-4.13,5.45-4.76,5.01-12.2,7.52-22.31,7.52h-15.65v-65.41h15.65c9.27,0,17,3.1,23.18,9.27,6.19,6.19,9.27,13.84,9.27,22.94,0,2.25-.25,4.55-.74,6.89Z"/><polygon class="cls-1" points="1345.62 690.12 1298.01 690.12 1298.01 607.42 1344.5 607.42 1344.5 616.07 1308.29 616.07 1308.29 643.63 1338.23 643.63 1338.23 652.27 1308.29 652.27 1308.29 681.47 1345.62 681.47 1345.62 690.12"/><path class="cls-1" d="M1454.21,618.95c-7.84-7.68-17.79-11.52-29.81-11.52h-27.58v82.69h27.45c7.18,0,13.13-.91,17.85-2.76,4.72-1.84,8.96-4.93,12.72-9.27,7.43-8.6,11.14-18.5,11.14-29.69,0-12.03-3.92-21.84-11.78-29.45Zm.25,36.22c-.5,2.34-1.19,4.63-2.06,6.89-.88,2.25-1.95,4.41-3.19,6.45-1.26,2.05-2.63,3.87-4.15,5.45-4.76,5.01-12.2,7.52-22.29,7.52h-15.67v-65.41h15.67c9.27,0,16.99,3.1,23.18,9.27,6.18,6.19,9.27,13.84,9.27,22.94,0,2.25-.25,4.55-.76,6.89Z"/><path class="cls-1" d="M1549.73,618.06c-7.77-8.09-17.67-12.15-29.7-12.15s-21.97,4.06-29.83,12.15c-7.84,8.11-11.78,18.35-11.78,30.7s3.93,22.73,11.78,30.83c7.86,8.09,17.8,12.15,29.83,12.15s21.93-4.06,29.7-12.15c7.84-8.11,11.78-18.39,11.78-30.83s-3.93-22.76-11.78-30.7Zm-8.4,54.76c-5.85,6.61-12.95,9.9-21.3,9.9s-15.59-3.29-21.43-9.9c-5.94-6.68-8.89-14.69-8.89-24.06s2.96-17.11,8.89-23.81c5.92-6.68,13.07-10.01,21.43-10.01s15.36,3.33,21.3,10.01c5.94,6.7,8.89,14.62,8.89,23.81s-2.96,17.38-8.89,24.06Z"/><path class="cls-1" d="M1658.86,613.94c-4.26-4.34-10.98-6.51-20.16-6.51h-25.94v82.69h10.27v-31.33c3.18,.34,5.84,.59,7.97,.75,2.13,.17,3.74,.26,4.82,.26,4.51,0,8.58-.65,12.21-1.95,3.64-1.29,6.74-3.15,9.29-5.58,2.55-2.42,4.51-5.36,5.88-8.83,1.37-3.46,2.07-7.32,2.07-11.58,0-7.61-2.13-13.59-6.4-17.92Zm-6.89,29c-1.75,2.97-4.13,5.09-7.14,6.33-2.51,1.09-6.1,1.64-10.77,1.64-2.76,0-6.43-.25-11.03-.76v-34.09h14.17c6.18,0,10.43,1.18,12.77,3.52,3.09,3.08,4.63,7.39,4.63,12.9,0,4.02-.87,7.5-2.63,10.46Z"/><path class="cls-1" d="M1746.27,618.06c-7.77-8.09-17.67-12.15-29.7-12.15s-21.97,4.06-29.81,12.15c-7.86,8.11-11.79,18.35-11.79,30.7s3.93,22.73,11.79,30.83c7.84,8.09,17.79,12.15,29.81,12.15s21.93-4.06,29.7-12.15c7.86-8.11,11.78-18.39,11.78-30.83s-3.92-22.76-11.78-30.7Zm-8.4,54.76c-5.84,6.61-12.94,9.9-21.3,9.9s-15.57-3.29-21.43-9.9c-5.92-6.68-8.89-14.69-8.89-24.06s2.97-17.11,8.89-23.81c5.94-6.68,13.08-10.01,21.43-10.01s15.38,3.33,21.3,10.01c5.94,6.7,8.91,14.62,8.91,23.81s-2.97,17.38-8.91,24.06Z"/><path class="cls-1" d="M1809.35,653.16c5.18-1.09,9.36-3.18,12.53-6.27,4.84-4.6,7.27-10.31,7.27-17.17s-2.17-11.89-6.51-16.16c-1.26-1.16-2.5-2.14-3.77-2.94-1.25-.8-2.63-1.41-4.13-1.87-1.51-.46-3.19-.8-5.07-1.01-1.89-.21-4.07-.31-6.58-.31h-25.19v82.69h10.28v-35.46h11.02l22.81,35.46h11.78l-24.44-36.96Zm-21.17-7.14v-29.95h13.42c6.09,0,10.1,.8,12.02,2.38,3.01,2.42,4.51,6.23,4.51,11.4,0,10.78-5.51,16.17-16.53,16.17h-13.42Z"/><polygon class="cls-1" points="1903.81 616.07 1876.25 616.07 1876.25 690.12 1865.98 690.12 1865.98 616.07 1838.41 616.07 1838.41 607.42 1903.81 607.42 1903.81 616.07"/><path class="cls-1" d="M1982.39,618.06c-7.77-8.09-17.67-12.15-29.7-12.15s-21.97,4.06-29.82,12.15c-7.85,8.11-11.78,18.35-11.78,30.7s3.92,22.73,11.78,30.83c7.84,8.09,17.79,12.15,29.82,12.15s21.93-4.06,29.7-12.15c7.86-8.11,11.78-18.39,11.78-30.83s-3.92-22.76-11.78-30.7Zm-8.4,54.76c-5.84,6.61-12.94,9.9-21.3,9.9s-15.57-3.29-21.43-9.9c-5.92-6.68-8.89-14.69-8.89-24.06s2.97-17.11,8.89-23.81c5.94-6.68,13.08-10.01,21.43-10.01s15.38,3.33,21.3,10.01c5.94,6.7,8.91,14.62,8.91,23.81s-2.97,17.38-8.91,24.06Z"/><polygon class="cls-1" points="555.79 472.75 520.32 472.75 520.32 494.05 549.39 494.05 549.39 507.33 520.32 507.33 520.32 542.04 504.54 542.04 504.54 459.34 555.79 459.34 555.79 472.75"/><path class="cls-1" d="M602.89,459.33h-14.16l-29.94,82.71h16.54l6.76-20.43h27.7l6.51,20.43h16.54l-29.95-82.71Zm-16.54,48.87l9.52-29.94,9.65,29.94h-19.17Z"/><path class="cls-1" d="M706.14,465.73l-6.01,12.53c-5.34-3.85-11.7-5.76-19.05-5.76-8.02,0-14.58,2.55-19.67,7.64-5.1,5.01-7.64,11.44-7.64,19.29,0,8.85,2.71,15.99,8.15,21.42,5.35,5.35,12.57,8.02,21.68,8.02,5.6,0,11.65-1.3,18.17-3.88l2.88,13.28c-4.51,2.09-8.23,3.42-11.15,4.01-2.09,.42-4.22,.75-6.39,1-2.17,.25-4.47,.37-6.89,.37-12.36,0-22.34-3.42-29.95-10.27-9.27-8.35-13.91-19.38-13.91-33.08,0-12.36,4.22-22.68,12.65-30.95,7.85-7.68,18.25-11.53,31.2-11.53,10.28,0,18.92,2.63,25.94,7.89Z"/><path class="cls-1" d="M787.57,509.71c0,7.52-.84,13.33-2.51,17.42-1.67,4.09-4.64,7.6-8.9,10.53-5.76,4.01-13.53,6.01-23.31,6.01s-17.58-2-23.43-6.01c-4.26-2.93-7.22-6.39-8.89-10.4-1.59-4.01-2.38-9.86-2.38-17.54v-50.37h15.66v51.25c0,12.28,6.52,18.42,19.55,18.42,12.28,0,18.42-6.14,18.42-18.42v-51.25h15.79v50.37Z"/><polygon class="cls-1" points="857.58 542.04 807.96 542.04 807.96 459.34 823.75 459.34 823.75 528.63 857.58 528.63 857.58 542.04"/><path class="cls-1" d="M933.33,471.37c-7.52-8.01-18.68-12.03-33.47-12.03h-30.7v82.71h30.58c14.69,0,25.85-4.05,33.45-12.16,7.59-8.11,11.4-17.91,11.4-29.45s-3.77-21.05-11.27-29.07Zm-13.42,49.63c-5.1,4.76-12.32,7.14-21.68,7.14h-12.53v-54.88h12.53c8.77,0,15.38,1.62,19.8,4.88,6.35,4.76,9.52,12.23,9.52,22.42,0,8.85-2.55,15.67-7.65,20.43Z"/><path class="cls-1" d="M992.06,459.33h-14.16l-29.94,82.71h16.54l6.76-20.43h27.7l6.51,20.43h16.54l-29.95-82.71Zm-16.54,48.87l9.52-29.94,9.65,29.94h-19.17Z"/><path class="cls-1" d="M1097.07,471.37c-7.52-8.01-18.67-12.03-33.46-12.03h-30.69v82.71h30.57c14.7,0,25.85-4.05,33.46-12.16,7.6-8.11,11.4-17.91,11.4-29.45s-3.75-21.05-11.27-29.07Zm-13.42,49.63c-5.08,4.76-12.31,7.14-21.68,7.14h-12.52v-54.88h12.52c8.78,0,15.38,1.62,19.8,4.88,6.36,4.76,9.52,12.23,9.52,22.42,0,8.85-2.55,15.67-7.65,20.43Z"/><polygon class="cls-1" points="1174.73 542.04 1122.73 542.04 1122.73 459.34 1173.1 459.34 1173.1 472.75 1138.52 472.75 1138.52 493.17 1166.83 493.17 1166.83 506.58 1138.52 506.58 1138.52 528.63 1174.73 528.63 1174.73 542.04"/><path class="cls-1" d="M1284.87,471.37c-7.52-8.01-18.67-12.03-33.45-12.03h-30.7v82.71h30.57c14.7,0,25.85-4.05,33.46-12.16,7.6-8.11,11.41-17.91,11.41-29.45s-3.77-21.05-11.29-29.07Zm-13.4,49.63c-5.1,4.76-12.32,7.14-21.68,7.14h-12.54v-54.88h12.54c8.77,0,15.38,1.62,19.8,4.88,6.34,4.76,9.52,12.23,9.52,22.42,0,8.85-2.55,15.67-7.64,20.43Z"/><polygon class="cls-1" points="1362.53 542.04 1310.54 542.04 1310.54 459.34 1360.9 459.34 1360.9 472.75 1326.32 472.75 1326.32 493.17 1354.64 493.17 1354.64 506.58 1326.32 506.58 1326.32 528.63 1362.53 528.63 1362.53 542.04"/><path class="cls-1" d="M1470.92,465.73l-6.01,12.53c-5.35-3.85-11.69-5.76-19.04-5.76-8.02,0-14.58,2.55-19.67,7.64-5.1,5.01-7.64,11.44-7.64,19.29,0,8.85,2.71,15.99,8.14,21.42,5.35,5.35,12.57,8.02,21.68,8.02,5.59,0,11.65-1.3,18.17-3.88l2.88,13.28c-4.51,2.09-8.23,3.42-11.15,4.01-2.09,.42-4.22,.75-6.39,1-2.17,.25-4.47,.37-6.89,.37-12.36,0-22.34-3.42-29.95-10.27-9.27-8.35-13.9-19.38-13.9-33.08,0-12.36,4.22-22.68,12.65-30.95,7.85-7.68,18.25-11.53,31.2-11.53,10.27,0,18.92,2.63,25.94,7.89Z"/><rect class="cls-2" x="1484.69" y="459.34" width="15.79" height="82.7"/><g><polygon class="cls-1" points="1567.79 455.45 1556.89 455.45 1548.74 447.32 1540.6 455.45 1529.7 455.45 1543.73 440.8 1553.76 440.8 1567.79 455.45"/><polygon class="cls-1" points="1574.68 542.04 1522.68 542.04 1522.68 459.34 1573.05 459.34 1573.05 472.75 1538.47 472.75 1538.47 493.17 1566.78 493.17 1566.78 506.58 1538.47 506.58 1538.47 528.63 1574.68 528.63 1574.68 542.04"/></g><path class="cls-1" d="M1661.84,542.79h-16.54l-35.46-53.5c-.17-.25-.4-.65-.69-1.19-.29-.54-.65-1.23-1.06-2.07-.17-.34-.33-.63-.5-.88-.17-.25-.33-.54-.5-.87-.5-.92-.88-1.88-1.12-2.88v60.64h-15.04v-82.7h18.17l34.71,54.38c.08,.17,.36,.73,.82,1.69,.46,.96,.73,1.52,.81,1.69l.75,2.13,.75,1.5v-61.4h14.91v83.45Z"/><path class="cls-1" d="M1746.96,465.73l-6.01,12.53c-5.35-3.85-11.69-5.76-19.04-5.76-8.02,0-14.58,2.55-19.67,7.64-5.1,5.01-7.64,11.44-7.64,19.29,0,8.85,2.71,15.99,8.15,21.42,5.34,5.35,12.57,8.02,21.67,8.02,5.6,0,11.65-1.3,18.17-3.88l2.88,13.28c-4.51,2.09-8.22,3.42-11.15,4.01-2.09,.42-4.22,.75-6.39,1-2.17,.25-4.46,.37-6.89,.37-12.36,0-22.35-3.42-29.95-10.27-9.27-8.35-13.91-19.38-13.91-33.08,0-12.36,4.22-22.68,12.66-30.95,7.85-7.68,18.25-11.53,31.2-11.53,10.27,0,18.92,2.63,25.93,7.89Z"/><rect class="cls-2" x="1760.73" y="459.34" width="15.79" height="82.7"/><path class="cls-1" d="M1831.8,459.33h-14.16l-29.95,82.71h16.54l6.78-20.43h27.68l6.51,20.43h16.54l-29.94-82.71Zm-16.54,48.87l9.53-29.94,9.64,29.94h-19.17Z"/><path class="cls-1" d="M1925.4,464.86l-6.27,14.16c-9.02-3.92-16.16-5.89-21.42-5.89-3.76,0-6.73,.69-8.9,2.07-2.17,1.38-3.26,3.24-3.26,5.58,0,3.01,2.63,5.93,7.89,8.77,12.86,6.85,21.09,12.15,24.68,15.91,3.84,3.76,5.77,8.69,5.77,14.78,0,7.35-2.53,13.1-7.58,17.23-5.05,4.13-12.22,6.2-21.49,6.2-1.25,0-2.5-.04-3.76-.12-1.25-.09-2.46-.21-3.63-.38-4.68-.67-10.44-2.59-17.29-5.76-.5-.26-1.19-.58-2.07-1-.87-.42-1.98-.92-3.32-1.51l6.64-14.53c2.67,1.42,5.01,2.63,7.02,3.63,2,1,3.59,1.72,4.76,2.13,4.17,1.59,8.14,2.38,11.9,2.38s6.7-.75,8.83-2.25c2.13-1.51,3.2-3.51,3.2-6.02,0-3.17-2.43-6.14-7.27-8.89l-12.78-7.27c-7.18-4.09-12.19-7.81-15.03-11.15-2.76-3.34-4.14-7.26-4.14-11.78,0-4.26,1.08-8.1,3.26-11.53,.67-1.17,1.53-2.25,2.57-3.26,1.05-1.01,2.24-1.97,3.57-2.88,5.35-3.68,12.28-5.52,20.8-5.52,5.6,0,10.77,.71,15.54,2.13,1.67,.5,3.47,1.15,5.39,1.94,1.92,.8,4.05,1.74,6.39,2.82Z"/><path class="cls-2" d="M375.72,611.18v-87.11h-10.9c-1.71,7.02-6.96,26.34-6.96,26.34-7.24-4.8-14.46-8.63-22.19-12.48-18.49-9.25-37.02-13.86-55.58-13.86-24.2,0-46.5,6.01-66.92,18.05-20.29,11.91-36.27,28.73-47.94,50.5-11.55,21.52-17.33,45.36-17.33,71.55,0,49.03,31.53,97.93,70.73,115.69,33.28,14.97,69.66,15.21,108.46-1.16,9.23-3.9,13.53-7.09,12.69-10.71-.52-2.22-2.54-4.03-5.29-2.51-3.6,1.99-6.55,3-10.64,4.72-29.58,12.26-142.9,29.58-131.64-132.39,1.26-18.13,5.23-34.64,9.81-45.65,8.14-19.49,19.28-33.75,33.46-42.71,14.25-8.92,30.17-13.38,47.73-13.38,21.02,0,39,5.94,53.89,17.85,14.9,11.94,26.3,31.08,34.28,57.28h4.33Z"/><path class="cls-1" d="M79.77,497.49v138.73h28.16v-84.72h30.97c15.36,0,24.65,11.88,24.65,22.26h3.5v-50.58h-7.16s-4.68,16.03-4.68,16.03h-47.29v-51.45c0-12.28,3.33-13.31,16.12-13.31h54.77v-12.28H55.45v5.63c23.55,4.1,24.31,4.1,24.31,29.69Z"/></svg>