<?xml version="1.0" encoding="UTF-8" standalone="no"?>
<svg
   xmlns:dc="http://purl.org/dc/elements/1.1/"
   xmlns:cc="http://creativecommons.org/ns#"
   xmlns:rdf="http://www.w3.org/1999/02/22-rdf-syntax-ns#"
   xmlns:svg="http://www.w3.org/2000/svg"
   xmlns="http://www.w3.org/2000/svg"
   viewBox="0 0 283.36667 208.7"
   height="208.7"
   width="283.36667"
   xml:space="preserve"
   id="svg2"
   version="1.1"><metadata
     id="metadata8"><rdf:RDF><cc:Work
         rdf:about=""><dc:format>image/svg+xml</dc:format><dc:type
           rdf:resource="http://purl.org/dc/dcmitype/StillImage" /></cc:Work></rdf:RDF></metadata><defs
     id="defs6"><clipPath
       id="clipPath20"
       clipPathUnits="userSpaceOnUse"><path
         id="path18"
         d="M 0,0 H 212.52499 V 156.52499 H 0 Z" /></clipPath><mask
       id="mask22"
       height="1"
       width="1"
       y="0"
       x="0"
       maskUnits="userSpaceOnUse"><g
         id="g28"><g
           id="g26"
           clip-path="url(#clipPath20)"><path
             id="path24"
             style="fill:#000000;fill-opacity:0.5;fill-rule:nonzero;stroke:none"
             d="M 0,0 H 212.52499 V 156.52499 H 0 Z" /></g></g></mask><clipPath
       id="clipPath36"
       clipPathUnits="userSpaceOnUse"><path
         id="path34"
         d="M 0,0 H 212.52499 V 156.52499 H 0 Z" /></clipPath><clipPath
       id="clipPath40"
       clipPathUnits="userSpaceOnUse"><path
         id="path38"
         d="M 0,0 H 213 V 157 H 0 Z" /></clipPath><pattern
       id="pattern52"
       height="157"
       width="213"
       y="0"
       x="0"
       patternUnits="userSpaceOnUse"
       patternTransform="translate(0,-0.475006)"><g
         id="g42" /><g
         id="g50"><g
           id="g48"
           clip-path="url(#clipPath40)"><g
             id="g46"><path
               id="path44"
               style="fill:#cccccc;fill-opacity:1;fill-rule:nonzero;stroke:none"
               d="m 99.18,46.176 45.668,0 0,-41.973 -45.668,0 0,41.973 z" /></g></g></g></pattern><clipPath
       id="clipPath172"
       clipPathUnits="userSpaceOnUse"><path
         id="path170"
         d="M 0,0 H 212.52499 V 156.52499 H 0 Z" /></clipPath><mask
       id="mask174"
       height="1"
       width="1"
       y="0"
       x="0"
       maskUnits="userSpaceOnUse"><g
         id="g180"><g
           id="g178"
           clip-path="url(#clipPath172)"><path
             id="path176"
             style="fill:#000000;fill-opacity:0.5;fill-rule:nonzero;stroke:none"
             d="M 0,0 H 212.52499 V 156.52499 H 0 Z" /></g></g></mask><clipPath
       id="clipPath188"
       clipPathUnits="userSpaceOnUse"><path
         id="path186"
         d="M 0,0 H 212.52499 V 156.52499 H 0 Z" /></clipPath><clipPath
       id="clipPath192"
       clipPathUnits="userSpaceOnUse"><path
         id="path190"
         d="M 0,0 H 213 V 157 H 0 Z" /></clipPath><pattern
       id="pattern206"
       height="157"
       width="213"
       y="0"
       x="0"
       patternUnits="userSpaceOnUse"
       patternTransform="translate(0,-0.475006)"><g
         id="g194" /><g
         id="g204"><g
           id="g202"
           clip-path="url(#clipPath192)"><g
             id="g200"><text
               id="text198"
               style="fill:#0000ff;fill-opacity:1;fill-rule:nonzero;stroke:none;font-family:Arial;font-variant:normal;font-weight:normal;font-size:9.6;writing-mode:lr;-inkscape-font-specification:ArialMT"
               transform="matrix(1,0,0,-1,155.0759,55.057031)"><tspan
                 id="tspan196"
                 y="0"
                 x="0 2.6592 5.856 11.2032 16.5408 21.3408 26.688 32.0256 35.232 40.5792 45.9168">transparent</tspan></text>
</g></g></g></pattern></defs><g
     transform="matrix(1.3333333,0,0,-1.3333333,0,208.69999)"
     id="g10"><g
       id="g12"><g
         id="g14"><g
           id="g16" /><g
           mask="url(#mask22)"
           id="g30"><g
             id="g32" /><g
             id="g60"><g
               id="g58"
               clip-path="url(#clipPath36)"><g
                 id="g56"><path
                   id="path54"
                   style="fill:url(#pattern52);fill-opacity:1;fill-rule:nonzero;stroke:none"
                   d="M 0,0 H 212.52499 V 156.52499 H 0 Z" /></g></g></g></g></g><path
         id="path62"
         style="fill:#000000;fill-opacity:1;fill-rule:nonzero;stroke:none"
         d="M 72.684,137.412 C 80.711,108.744 37.551,98.517 47.832,63.166" /><path
         id="path64"
         style="fill:#000000;fill-opacity:1;fill-rule:nonzero;stroke:none"
         d="M 192.324,73.892 C 182.941,52.916 162.43,34.298 148.684,20.556" /><text
         id="text68"
         style="font-variant:normal;font-weight:normal;font-size:9.60000038px;font-family:'Times New Roman';-inkscape-font-specification:TimesNewRomanPSMT;writing-mode:lr-tb;fill:#000000;fill-opacity:1;fill-rule:nonzero;stroke:none"
         transform="matrix(1,0,0,-1,136.28822,145.51389)"><tspan
           id="tspan66"
           y="0"
           x="0 3.1968 7.9967999">Ink</tspan></text>
<text
         id="text72"
         style="font-style:italic;font-variant:normal;font-size:9.60000038px;font-family:'Times New Roman Italic';-inkscape-font-specification:TimesNewRomanPS-ItalicMT;writing-mode:lr-tb;fill:#000000;fill-opacity:1;fill-rule:nonzero;stroke:none"
         transform="matrix(1,0,0,-1,149.08502,145.51389)"><tspan
           id="tspan70"
           y="0"
           x="0 3.7344 7.9871998 12.7872 17.5872">scape</tspan></text>
<text
         id="text76"
         style="font-variant:normal;font-weight:normal;font-size:9.60000038px;font-family:'Times New Roman';-inkscape-font-specification:TimesNewRomanPSMT;writing-mode:lr-tb;fill:#ff0000;fill-opacity:1;fill-rule:nonzero;stroke:none"
         transform="matrix(1,0,0,-1,178.89016,31.343671)"><tspan
           id="tspan74"
           y="0"
           x="0 3.1968 7.4496002">red</tspan></text>
<text
         id="text80"
         style="font-variant:normal;font-weight:normal;font-size:9.59999943px;font-family:'Times New Roman';-inkscape-font-specification:TimesNewRomanPSMT;writing-mode:lr-tb;fill:#000000;fill-opacity:1;fill-rule:nonzero;stroke:none"
         transform="matrix(0.70710678,0.70710678,0.70710678,-0.70710678,4.875996,15.854727)"><tspan
           id="tspan78"
           y="0"
           x="0 4.7999997 9.5999994 12 16.799999 19.996799 24.249599 29.049599 33.302399">45 graden</tspan></text>
<g
         transform="matrix(1,0,0,-1,0,156.52499)"
         id="g82"><path
           id="path84"
           style="fill:none;stroke:#ff0000;stroke-width:0.80000001;stroke-linecap:butt;stroke-linejoin:miter;stroke-miterlimit:4;stroke-dasharray:none;stroke-opacity:1"
           d="M 0.395,0.398 H 212.122 V 156.125 H 0.395 Z" /></g><text
         id="text88"
         style="font-variant:normal;font-weight:normal;font-size:4.87665415px;font-family:Arial;-inkscape-font-specification:ArialMT;writing-mode:lr-tb;fill:#000000;fill-opacity:1;fill-rule:nonzero;stroke:none"
         transform="matrix(1,0,0,-1,99.825906,128.48395)"><tspan
           id="tspan86"
           y="0"
           x="0 2.7114196 4.062253 5.1448698 6.2323637 10.299493 13.010913 14.634839 17.351135 18.697092 20.047924 21.393881 24.110178 25.456135 26.806967 27.889584 30.605881 31.951838 33.30267 35.740997 37.364922 38.71088 41.149208 43.865501 47.932632 50.644051 52.267979 54.706306 57.549393 60.26569 61.889614 64.17189 66.888184 68.234146 69.584976 70.930931 72.559738 75.276031 77.714355 79.338287 82.049706 83.67363 85.297554 87.735886 90.023033 92.734451 94.358376">$\lim_{n \to \infty}\sum_{k=1}^n \frac{1}{k^2}$</tspan></text>
<text
         id="text94"
         style="font-variant:normal;font-weight:normal;font-size:9.60000038px;font-family:Arial;-inkscape-font-specification:ArialMT;writing-mode:lr-tb;fill:#000000;fill-opacity:1;fill-rule:nonzero;stroke:none"
         transform="matrix(1,0,0,-1,24.234314,147.02564)"><tspan
           id="tspan90"
           y="0"
           x="0 6.4032001 8.5344 13.8816 18.681601 21.3312 26.6784 28.809601 34.156799 36.8064 39.465599 44.8032 50.150398 53.3568 58.694401 61.3536 64.5504 69.888 75.235199 77.884804 83.232002 91.238403 96.038399 101.376">Einstein \eqref{eq:emc2}</tspan><tspan
           id="tspan92"
           y="44.380703"
           x="141.38593 146.72353 152.06113">ooo</tspan></text>
<g
         transform="matrix(1,0,0,-1,0,156.52499)"
         id="g96"><path
           id="path98"
           style="fill:none;stroke:#000000;stroke-width:0.80000001;stroke-linecap:butt;stroke-linejoin:miter;stroke-miterlimit:4;stroke-dasharray:none;stroke-opacity:1"
           d="m 173.637,38.398 v 25.2" /></g><text
         id="text106"
         style="font-variant:normal;font-weight:normal;font-size:4.80000019px;font-family:Arial;-inkscape-font-specification:ArialMT;writing-mode:lr-tb;fill:#000000;fill-opacity:1;fill-rule:nonzero;stroke:none"
         transform="matrix(1,0,0,-1,99.184262,41.690062)"><tspan
           id="tspan100"
           y="0"
           x="0 1.3296 2.6544001 3.7248001 6.3936 8.7936001 10.4016 13.3344 14.4 17.073601 20.5392 23.212799 25.881599 27.489599 28.819201 31.488001 33.888 35.217602 36.8256 39.4944 40.5648 42.964802 45.633598">\tiny Flowed text also </tspan><tspan
           id="tspan102"
           y="6"
           x="0 3.4656 6.1392002 7.7424002 10.1424 12.5424 13.8672 16.08 19.007999 21.681601 22.7472 25.1472 27.3552 28.4256 30.8256 33.0336 35.7024 37.9104 39.240002 41.908798 44.3088 45.638401">works. This is a test </tspan><tspan
           id="tspan104"
           y="12"
           x="0 1.3296 3.9984 6.3983998 7.7280002 11.6688 12.9936 15.6672 19.608 22.007999 24.681601 27.350401 31.296 32.6208 35.294399 37.9632 39.292801 43.233601 44.304001 45.628799">text to see that it </tspan></text>
<text
         id="text110"
         style="font-variant:normal;font-weight:bold;font-size:4.80000019px;font-family:'Arial Bold';-inkscape-font-specification:Arial-BoldMT;writing-mode:lr-tb;fill:#000000;fill-opacity:1;fill-rule:nonzero;stroke:none"
         transform="matrix(1,0,0,-1,99.184262,23.690062)"><tspan
           id="tspan108"
           y="0"
           x="0 2.928 5.8607998 8.5296001">does</tspan></text>
<text
         id="text120"
         style="font-variant:normal;font-weight:normal;font-size:4.80000019px;font-family:Arial;-inkscape-font-specification:ArialMT;writing-mode:lr-tb;fill:#000000;fill-opacity:1;fill-rule:nonzero;stroke:none"
         transform="matrix(1,0,0,-1,111.71226,23.690062)"><tspan
           id="tspan112"
           y="0"
           x="0 3.4704001 6.1392002 7.7424002 10.1424 11.472">work. </tspan><tspan
           id="tspan114"
           y="6"
           x="-12.528 -9.3263998 -6.6575999 -5.3280001 -4.0032001 -2.0639999 -0.99360001 0.3312 2.2704 4.9439998 7.6128001 8.6831999 11.0832 13.0224 16.488001 19.1616 20.764799 23.164801 25.5648 27.504 28.8288 31.502399 33.105598">But, it only works for </tspan><tspan
           id="tspan116"
           y="12"
           x="-12.528 -10.9248 -8.2559996 -5.8559999 -4.5264001 -1.8576 0.81599998 3.4848001 6.1584001 7.224 9.8976002 11.5008 24.5952 25.92 26.9904 29.659201 33.129601">rectangular flow </tspan><tspan
           id="tspan118"
           y="18"
           x="-12.528 -10.128 -7.4591999 -4.7856002 -2.1168001 0.55680001 2.9568">shapes.</tspan></text>
<g
         transform="matrix(1,0,0,-1,0,156.52499)"
         id="g122"><path
           id="path124"
           style="fill:none;stroke:#0000ff;stroke-width:0.96912003;stroke-linecap:butt;stroke-linejoin:miter;stroke-miterlimit:4;stroke-dasharray:none;stroke-opacity:1"
           d="m 167.59,144.371 h -1.262 V 133.27 h 1.363 v 3.96 c 0.575,-0.718 1.309,-1.078 2.204,-1.082 0.492,0.004 0.957,0.102 1.402,0.301 0.437,0.199 0.801,0.481 1.09,0.84 0.281,0.363 0.508,0.797 0.672,1.305 0.16,0.511 0.238,1.058 0.242,1.636 -0.004,1.379 -0.344,2.446 -1.024,3.196 -0.683,0.754 -1.5,1.125 -2.453,1.129 -0.949,-0.004 -1.695,-0.399 -2.234,-1.192 z m -0.012,-4.082 c -0.004,0.965 0.125,1.66 0.391,2.09 0.426,0.703 1.008,1.055 1.742,1.055 0.594,0 1.109,-0.258 1.543,-0.778 0.434,-0.515 0.648,-1.285 0.652,-2.312 -0.004,-1.047 -0.211,-1.824 -0.625,-2.324 -0.418,-0.5 -0.922,-0.75 -1.508,-0.75 -0.601,0 -1.117,0.261 -1.546,0.777 -0.438,0.519 -0.653,1.266 -0.649,2.242 z m 7.356,4.082 V 133.27 h 1.363 v 11.101 z m 8.754,0 v -1.18 c -0.629,0.911 -1.481,1.36 -2.551,1.364 -0.481,-0.004 -0.926,-0.09 -1.332,-0.274 -0.414,-0.179 -0.719,-0.41 -0.918,-0.683 -0.199,-0.274 -0.34,-0.61 -0.418,-1.012 -0.059,-0.266 -0.086,-0.691 -0.082,-1.273 v -4.985 h 1.363 v 4.461 c 0,0.715 0.027,1.191 0.082,1.438 0.086,0.359 0.266,0.644 0.543,0.847 0.277,0.207 0.621,0.309 1.031,0.305 0.407,0.004 0.789,-0.102 1.153,-0.313 0.355,-0.207 0.609,-0.492 0.761,-0.855 0.145,-0.359 0.219,-0.883 0.223,-1.574 v -4.309 h 1.363 v 8.043 z m 8.867,-2.59 1.406,0.176 c -0.223,0.824 -0.637,1.465 -1.234,1.918 -0.602,0.453 -1.368,0.676 -2.301,0.68 -1.176,-0.004 -2.11,-0.364 -2.797,-1.086 -0.695,-0.727 -1.039,-1.742 -1.035,-3.051 -0.004,-1.348 0.344,-2.398 1.043,-3.148 0.695,-0.747 1.601,-1.118 2.715,-1.122 1.074,0.004 1.949,0.368 2.632,1.098 0.68,0.734 1.024,1.766 1.024,3.09 0,0.082 -0.004,0.203 -0.008,0.363 h -5.996 c 0.047,0.887 0.297,1.563 0.746,2.031 0.449,0.469 1.012,0.704 1.684,0.704 0.5,0 0.925,-0.129 1.277,-0.395 0.352,-0.258 0.633,-0.68 0.844,-1.258 z m -4.477,-2.203 h 4.492 c -0.062,-0.676 -0.234,-1.183 -0.515,-1.523 -0.438,-0.524 -1,-0.785 -1.688,-0.785 -0.629,0 -1.156,0.21 -1.582,0.628 -0.426,0.422 -0.66,0.981 -0.707,1.68 z" /></g><text
         id="text128"
         style="font-variant:normal;font-weight:normal;font-size:9.60000038px;font-family:Arial;-inkscape-font-specification:ArialMT;writing-mode:lr-tb;fill:#00ff00;fill-opacity:1;fill-rule:nonzero;stroke:none"
         transform="matrix(1,0,0,-1,173.76401,22.858368)"><tspan
           id="tspan126"
           y="0"
           x="0 5.3376002 8.5439997 13.8912 19.2288">green</tspan></text>
<path
         id="path130"
         style="fill:#666666;fill-opacity:1;fill-rule:nonzero;stroke:none"
         d="m 23.195,9.931 h 69.84 V 5.81 h -69.84 z" /><text
         id="text134"
         style="font-variant:normal;font-weight:normal;font-size:7.69815779px;font-family:'Adobe Garamond Pro';-inkscape-font-specification:AGaramondPro-Regular;writing-mode:lr-tb;fill:#000000;fill-opacity:1;fill-rule:nonzero;stroke:none"
         transform="matrix(1,0,0,-1,23.194324,9.932294)"><tspan
           id="tspan132"
           y="0"
           x="0 3.1100559 4.9961047 6.9822292 10.415607 14.457141 17.505611 21.431671 23.356211 27.089817 31.13905 33.063587 36.912666 40.022724 42.50153 45.557697 47.443748 49.429874 53.471405">aligned on baseline</tspan></text>
<path
         id="path136"
         style="fill:#b3b3b3;fill-opacity:1;fill-rule:nonzero;stroke:none"
         d="M 10.059,134.349 H 38.305 V 59.81 H 10.059 Z" /><text
         id="text140"
         style="font-variant:normal;font-weight:normal;font-size:9.60000038px;font-family:'Times New Roman';-inkscape-font-specification:TimesNewRomanPSMT;writing-mode:lr-tb;fill:#000000;fill-opacity:1;fill-rule:nonzero;stroke:none"
         transform="matrix(0,-1,-1,0,10.059253,121.86892)"><tspan
           id="tspan138"
           y="0"
           x="0 4.8000002 9.6000004 12 16.799999 21.052799 25.8528 29.049601 33.302399 37.555199">90 degrees</tspan></text>
<text
         id="text144"
         style="font-variant:normal;font-weight:normal;font-size:9.60000038px;font-family:'Times New Roman';-inkscape-font-specification:TimesNewRomanPSMT;writing-mode:lr-tb;fill:#000000;fill-opacity:1;fill-rule:nonzero;stroke:none"
         transform="matrix(0,1,1,0,38.306275,80.229078)"><tspan
           id="tspan142"
           y="0"
           x="0 4.8000002 9.6000004 12 16.799999 21.052799 25.8528 29.049601 33.302399 37.555199">90 degrees</tspan></text>
<text
         id="text156"
         style="font-variant:normal;font-weight:normal;font-size:9.60000038px;font-family:Arial;-inkscape-font-specification:ArialMT;writing-mode:lr-tb;fill:#000000;fill-opacity:1;fill-rule:nonzero;stroke:none"
         transform="matrix(1,0,0,-1,173.63586,110.77187)"><tspan
           id="tspan146"
           y="0"
           x="0 5.3376002 10.6752">ooo</tspan><tspan
           id="tspan148"
           y="15.479856"
           x="-16.031252 -10.693651 -5.356051">ooo</tspan><tspan
           id="tspan150"
           y="-2.6837184"
           x="-64.33326 -58.995659 -54.195656">$x$</tspan><tspan
           id="tspan152"
           y="1.6946304"
           x="-54.846836 -49.509235 -44.709236">$y$</tspan><tspan
           id="tspan154"
           y="7.1675806"
           x="-44.630669 -39.293068 -34.493069">$z$</tspan></text>
<g
         transform="matrix(1,0,0,-1,0,156.52499)"
         id="g158"><path
           id="path160"
           style="fill:none;stroke:#000000;stroke-width:0.40000001;stroke-linecap:butt;stroke-linejoin:miter;stroke-miterlimit:4;stroke-dasharray:none;stroke-opacity:1"
           d="m 66.484,135.801 3.168,0.457 c 0.274,-2.324 0.782,-4.59 1.504,-6.781 l -2.965,-1 c 0,0 -0.222,1.074 -1.41,1.937 -0.593,0.43 -1.199,0.082 -1.793,-0.449 -0.593,-0.527 -1.168,-1.235 -1.754,-1.406 -0.582,-0.176 -1.238,-0.055 -1.789,0.289 -0.554,0.34 -1.007,0.906 -1.175,1.574 -0.172,0.668 -0.04,1.379 0.293,1.941 0.328,0.559 0.859,0.969 1.46,1.082 0.606,0.11 1.442,-0.25 2.215,-0.445 0.77,-0.195 1.473,-0.234 1.84,0.398 0.727,1.266 0.406,2.403 0.406,2.403 z m 1.707,-7.324 2.965,1 c 0.719,-2.192 1.649,-4.313 2.762,-6.36 l -2.746,-1.48 c 0,0 -0.406,1.023 -1.719,1.664 -0.656,0.32 -1.187,-0.125 -1.676,-0.746 -0.492,-0.617 -0.937,-1.407 -1.48,-1.676 -0.543,-0.27 -1.199,-0.266 -1.793,-0.024 -0.594,0.239 -1.125,0.708 -1.395,1.329 -0.273,0.617 -0.261,1.328 -0.031,1.929 0.227,0.602 0.668,1.09 1.235,1.301 0.562,0.215 1.429,0.016 2.21,-0.039 0.782,-0.055 1.473,0.031 1.711,0.711 0.481,1.352 -0.043,2.391 -0.043,2.391 z m 2.981,-6.84 2.746,1.48 c 1.113,-2.043 2.41,-4.015 3.863,-5.902 l -2.515,-1.899 c 0,0 -0.571,0.961 -1.981,1.395 -0.707,0.219 -1.16,-0.313 -1.551,-1.004 -0.39,-0.691 -0.714,-1.543 -1.211,-1.898 -0.5,-0.352 -1.156,-0.45 -1.777,-0.309 -0.625,0.145 -1.219,0.523 -1.578,1.094 -0.359,0.566 -0.457,1.269 -0.324,1.898 0.133,0.629 0.492,1.18 1.011,1.485 0.524,0.304 1.411,0.25 2.192,0.324 0.781,0.074 1.449,0.273 1.574,0.98 0.25,1.418 -0.449,2.356 -0.449,2.356 z m 4.094,-6.321 2.515,1.899 c 1.453,-1.891 3.063,-3.699 4.797,-5.422 l -2.273,-2.246 c 0,0 -0.707,0.894 -2.188,1.133 -0.738,0.121 -1.117,-0.477 -1.414,-1.223 -0.297,-0.75 -0.504,-1.648 -0.957,-2.074 -0.453,-0.426 -1.094,-0.613 -1.738,-0.563 -0.641,0.055 -1.285,0.348 -1.723,0.864 -0.871,1.023 -0.738,2.714 0.215,3.476 0.477,0.383 1.371,0.461 2.141,0.653 0.769,0.187 1.414,0.484 1.433,1.21 0.039,1.461 -0.808,2.293 -0.808,2.293 z m 5.039,-5.769 2.273,2.246 c 1.738,-1.723 3.606,-3.355 5.57,-4.898 l -2.015,-2.536 c 0,0 -0.824,0.821 -2.344,0.879 -0.762,0.032 -1.066,-0.617 -1.273,-1.406 -0.207,-0.789 -0.305,-1.719 -0.707,-2.203 -0.805,-0.965 -2.504,-1.055 -3.508,-0.145 -1,0.911 -1.078,2.621 -0.223,3.516 0.43,0.445 1.317,0.645 2.067,0.938 0.75,0.289 1.359,0.667 1.285,1.406 -0.153,1.476 -1.125,2.203 -1.125,2.203 z m 5.828,-5.188 2.015,2.536 c 1.969,-1.547 4.04,-2.997 6.184,-4.352 l -1.75,-2.754 c 0,0 -0.914,0.738 -2.445,0.633 -0.77,-0.055 -1.004,-0.738 -1.121,-1.555 -0.121,-0.812 -0.118,-1.754 -0.469,-2.285 -0.699,-1.055 -2.391,-1.34 -3.496,-0.547 -1.102,0.789 -1.379,2.492 -0.617,3.488 0.379,0.5 1.246,0.805 1.964,1.184 0.719,0.383 1.29,0.832 1.129,1.566 -0.328,1.465 -1.394,2.086 -1.394,2.086 z m 6.449,-4.57 1.75,2.754 c 2.145,-1.355 4.363,-2.613 6.629,-3.766 l -1.465,-2.91 c 0,0 -0.984,0.649 -2.5,0.391 -0.758,-0.129 -0.922,-0.836 -0.961,-1.66 -0.035,-0.825 0.063,-1.762 -0.234,-2.321 -0.594,-1.125 -2.246,-1.586 -3.426,-0.918 -1.18,0.668 -1.633,2.332 -0.98,3.411 0.328,0.539 1.16,0.937 1.839,1.394 0.68,0.453 1.207,0.961 0.965,1.68 -0.476,1.433 -1.617,1.945 -1.617,1.945 z m 6.914,-3.922 1.465,2.91 c 2.269,-1.156 4.582,-2.207 6.918,-3.152 l -1.168,-2.996 c 0,0 -1.031,0.551 -2.504,0.152 -0.734,-0.199 -0.832,-0.914 -0.789,-1.73 0.043,-0.817 0.227,-1.731 -0.012,-2.309 -0.48,-1.164 -2.07,-1.785 -3.301,-1.246 -1.23,0.539 -1.839,2.141 -1.296,3.27 0.273,0.566 1.058,1.047 1.691,1.562 0.629,0.52 1.098,1.07 0.793,1.758 -0.613,1.379 -1.797,1.781 -1.797,1.781 z m 7.215,-3.238 1.168,2.996 c 0.73,-0.293 1.461,-0.578 2.195,-0.852 1.492,-0.546 3.043,-0.984 4.641,-1.328 l -0.684,-3.121 c 0,0 -1.062,0.364 -2.433,-0.222 -0.688,-0.293 -0.7,-1.004 -0.551,-1.797 0.152,-0.793 0.465,-1.668 0.312,-2.27 -0.152,-0.601 -0.601,-1.105 -1.187,-1.406 -0.586,-0.301 -1.317,-0.391 -1.984,-0.184 -0.59,0.184 -1.09,0.59 -1.415,1.082 -0.382,0.614 -0.503,1.371 -0.265,2.024 0.23,0.621 1.055,1.203 1.637,1.816 0.468,0.488 0.777,1 0.554,1.551 -0.019,0.039 -0.039,0.078 -0.062,0.121 -0.727,1.297 -1.926,1.59 -1.926,1.59 z m 7.32,-2.305 0.684,3.121 c 2.32,-0.504 4.734,-0.816 7.203,-1.004 l -0.246,-3.195 c 0,0 -1.129,0.215 -2.41,-0.578 -0.641,-0.398 -0.535,-1.102 -0.266,-1.867 0.27,-0.766 0.707,-1.582 0.645,-2.203 -0.063,-0.621 -0.422,-1.188 -0.946,-1.578 -0.519,-0.387 -1.207,-0.594 -1.879,-0.497 -0.675,0.098 -1.281,0.489 -1.679,1.012 -0.399,0.52 -0.59,1.168 -0.477,1.774 0.113,0.605 0.742,1.261 1.207,1.914 0.461,0.656 0.758,1.308 0.289,1.879 -0.933,1.14 -2.125,1.222 -2.125,1.222 z m 7.641,-1.078 0.246,3.195 c 1.316,-0.101 2.648,-0.168 3.988,-0.207 1.188,-0.027 2.387,-0.035 3.606,-0.035 L 129.516,89 c 0,0 -1.176,0.129 -2.383,-0.789 -0.602,-0.457 -0.418,-1.148 -0.074,-1.879 0.339,-0.734 0.843,-1.504 0.839,-2.129 -0.007,-1.156 -1.039,-2.23 -2.242,-2.348 -0.09,-0.007 -0.183,-0.011 -0.277,-0.011 -1.32,0.031 -2.484,1.261 -2.414,2.496 0.031,0.621 0.57,1.351 0.949,2.058 0.379,0.711 0.598,1.391 0.059,1.903 -1.078,1.023 -2.301,0.945 -2.301,0.945 z m 7.844,-0.246 -0.004,3.199 c 2.605,0.008 5.277,0.059 8.023,0.051 l -0.012,-3.203 c 0,0 -1.207,0.137 -2.41,-0.805 -1.203,-0.941 0.813,-2.75 0.821,-3.996 0.004,-1.246 -1.118,-2.406 -2.364,-2.418 -1.246,-0.012 -2.422,1.141 -2.429,2.379 -0.012,1.234 1.914,3.047 0.769,4.008 -1.144,0.961 -2.394,0.785 -2.394,0.785 z m 8.007,0.047 0.012,3.203 c 1.863,-0.008 3.762,-0.043 5.692,-0.141 0.914,-0.039 1.836,-0.101 2.757,-0.183 l -0.293,-3.196 c 0,0 -1.234,0.243 -2.511,-0.621 -0.063,-0.043 -0.117,-0.089 -0.168,-0.14 -0.379,-0.383 -0.293,-0.922 -0.078,-1.504 0.3,-0.809 0.843,-1.711 0.796,-2.399 -0.046,-0.722 -0.457,-1.386 -1.011,-1.812 -0.406,-0.305 -0.887,-0.488 -1.383,-0.469 -1.18,0.043 -2.27,1.219 -2.254,2.453 0.008,0.617 0.496,1.367 0.852,2.086 0.351,0.715 0.574,1.403 0.007,1.899 -1.128,0.992 -2.418,0.824 -2.418,0.824 z m 8.168,-0.317 0.293,3.196 c 2.879,-0.262 5.786,-0.719 8.661,-1.434 l -0.762,-3.105 c 0,0 -1.203,0.433 -2.594,-0.246 -0.691,-0.34 -0.609,-1.059 -0.406,-1.84 0.203,-0.781 0.515,-1.629 0.387,-2.238 -0.125,-0.61 -0.512,-1.141 -0.993,-1.5 -0.484,-0.36 -1.062,-0.551 -1.621,-0.461 -0.558,0.089 -1.054,0.453 -1.402,0.945 -0.348,0.496 -0.547,1.125 -0.477,1.738 0.075,0.617 0.629,1.313 1.059,1.988 0.43,0.676 0.734,1.332 0.223,1.891 -1.028,1.117 -2.368,1.066 -2.368,1.066 z m 8.192,-1.343 0.762,3.105 c 2.601,-0.644 5.179,-1.5 7.703,-2.597 0.261,-0.118 0.523,-0.239 0.785,-0.364 l -1.352,-2.894 c 0,0 -0.277,0.168 -0.75,0.285 -0.468,0.109 -1.121,0.168 -1.863,-0.035 -0.746,-0.207 -0.789,-0.93 -0.73,-1.735 0.054,-0.8 0.199,-1.691 -0.04,-2.265 -0.242,-0.574 -0.71,-1.024 -1.238,-1.293 -0.527,-0.266 -1.109,-0.352 -1.625,-0.176 -0.512,0.18 -0.922,0.613 -1.172,1.152 -0.25,0.539 -0.343,1.188 -0.175,1.782 0.167,0.593 0.82,1.195 1.351,1.789 0.531,0.589 0.941,1.187 0.524,1.82 -0.836,1.266 -2.18,1.426 -2.18,1.426 z m 7.898,-2.75 1.352,2.894 c 2.722,-1.289 5.285,-2.816 7.691,-4.523 l -1.859,-2.598 c 0,0 -0.957,0.844 -2.5,0.727 -0.77,-0.063 -0.953,-0.758 -1.055,-1.555 -0.097,-0.797 -0.121,-1.699 -0.469,-2.215 -0.343,-0.519 -0.894,-0.867 -1.468,-1.023 -0.575,-0.156 -1.172,-0.125 -1.645,0.156 -0.473,0.277 -0.785,0.785 -0.926,1.363 -0.136,0.575 -0.097,1.227 0.188,1.774 0.281,0.551 1.035,1.008 1.676,1.484 0.64,0.477 1.16,0.977 0.879,1.68 -0.567,1.406 -1.864,1.836 -1.864,1.836 z m 7.184,-4.227 1.859,2.598 c 2.403,-1.711 4.645,-3.598 6.735,-5.613 l -2.231,-2.309 c 0,0 -0.816,0.973 -2.359,1.094 -0.77,0.062 -1.067,-0.598 -1.293,-1.371 -0.223,-0.778 -0.383,-1.672 -0.805,-2.133 -0.844,-0.922 -2.398,-1.059 -3.262,-0.328 -0.429,0.363 -0.664,0.929 -0.707,1.531 -0.043,0.601 0.11,1.242 0.485,1.734 0.375,0.489 1.207,0.805 1.918,1.164 0.715,0.36 1.316,0.766 1.16,1.508 -0.313,1.481 -1.5,2.125 -1.5,2.125 z" /></g><text
         id="text164"
         style="font-variant:normal;font-weight:normal;font-size:4.79486036px;font-family:Arial;-inkscape-font-specification:ArialMT;writing-mode:lr-tb;fill:#000000;fill-opacity:1;fill-rule:nonzero;stroke:none"
         transform="matrix(0.79326981,-0.57739261,-0.60887028,-0.75225881,69.814642,100.26572)"><tspan
           id="tspan162"
           y="0"
           x="0 2.9248648 3.9941187 6.3915491 9.3164139 10.64459 11.967972 14.638709 15.703168 18.100597 20.771336 22.094717 23.696199 24.765453 27.431396 30.102135 31.425516 34.096252 35.697735 37.299221 39.96516 43.431847">TikZ this$\rightarrow$</tspan></text>
<g
         id="g166"><g
           id="g168" /><g
           mask="url(#mask174)"
           id="g182"><g
             id="g184" /><g
             id="g214"><g
               id="g212"
               clip-path="url(#clipPath188)"><g
                 id="g210"><path
                   id="path208"
                   style="fill:url(#pattern206);fill-opacity:1;fill-rule:nonzero;stroke:none"
                   d="M 0,0 H 212.52499 V 156.52499 H 0 Z" /></g></g></g></g></g></g></g></svg>